<svg width="438" height="438" viewBox="0 -20 438 438" fill="none" xmlns="http://www.w3.org/2000/svg">
<mask id="mask0_64_9824" style="mask-type:luminance" maskUnits="userSpaceOnUse" x="4" y="43" width="428" height="341">
<path d="M4.08799 43.8H431.576V383.688H4.08799V43.8Z" fill="white"/>
</mask>
<g mask="url(#mask0_64_9824)">
<mask id="mask1_64_9824" style="mask-type:luminance" maskUnits="userSpaceOnUse" x="4" y="43" width="430" height="342">
<path d="M4.62865 174.292L355.207 43.8729L433.246 253.645L82.6679 384.064L4.62865 174.292Z" fill="white"/>
</mask>
<g mask="url(#mask1_64_9824)">
<mask id="mask2_64_9824" style="mask-type:luminance" maskUnits="userSpaceOnUse" x="4" y="43" width="430" height="342">
<path d="M4.62865 174.292L355.207 43.8729L433.246 253.645L82.6679 384.064L4.62865 174.292Z" fill="white"/>
</mask>
<g mask="url(#mask2_64_9824)">
<g filter="url(#filter0_d_64_9824)">
<mask id="mask3_64_9824" style="mask-type:luminance" maskUnits="userSpaceOnUse" x="4" y="43" width="430" height="342">
<path d="M4.62865 174.292L355.207 43.8729L433.246 253.645L82.6679 384.064L4.62865 174.292Z" fill="white"/>
</mask>
<g mask="url(#mask3_64_9824)">
<path d="M360.072 56.9491L353.69 64.6803L363.572 66.3593L365.062 70.3606L358.679 78.0917L368.561 79.7707L370.051 83.7721L363.668 91.5032L373.55 93.1822L375.04 97.1835L368.657 104.915L378.541 106.594L380.029 110.595L373.646 118.326L383.531 120.005L385.018 124.006L378.635 131.738L388.52 133.417L390.007 137.418L383.624 145.149L393.509 146.828L394.996 150.829L388.613 158.561L398.603 160.52L400.09 164.521L393.707 172.253L403.592 173.932L405.079 177.933L398.696 185.664L408.581 187.343L410.068 191.344L403.685 199.076L413.57 200.752L415.057 204.756L408.675 212.487L418.559 214.164L420.049 218.167L413.664 225.898L423.548 227.575L425.038 231.579L418.653 239.308L428.642 241.267L430.13 245.271L423.747 253.002L431.32 254.261L371.721 276.433L337.504 289.162C337.454 289.021 337.427 288.95 337.401 288.879C333.795 279.191 323.018 274.247 313.341 277.847C303.666 281.447 298.739 292.233 302.343 301.923C302.396 302.063 302.421 302.133 302.448 302.204L83.4755 383.665L88.3847 377.761L79.7867 376.324L77.8271 371.057L83.3956 364.35L74.7725 362.842L72.8129 357.575L78.3792 350.868L69.7834 349.43L67.8238 344.165L73.3901 337.456L64.767 335.948L62.8074 330.683L68.3759 323.976L59.7779 322.537L57.8183 317.272L63.3845 310.565L54.7637 309.057L52.8041 303.789L58.3703 297.083L49.7472 295.575L47.7876 290.307L53.3539 283.6L44.7581 282.163L42.7985 276.896L48.3648 270.189L39.7439 268.681L37.7843 263.416L43.3506 256.709L34.7526 255.27L32.7952 250.004L38.3615 243.298L29.7384 241.79L27.7788 236.522L33.345 229.815L24.7219 228.307L22.7646 223.04L28.3308 216.333L19.7328 214.896L17.7755 209.629L23.3417 202.922L14.7186 201.414L12.759 196.149L18.3253 189.442L9.72952 188.002L7.76993 182.737L13.3111 175.96L4.71306 174.522L4.66059 174.381L224.404 92.6324C224.457 92.7739 224.482 92.8446 224.534 92.9837C228.139 102.674 238.918 107.618 248.595 104.018C258.269 100.418 263.197 89.6326 259.593 79.9418C259.54 79.8027 259.515 79.732 259.463 79.5905L293.679 66.8612L354.399 44.2722L348.673 51.1981L358.558 52.8771L360.072 56.9491Z" fill="#0021FF"/>
</g>
</g>
</g>
</g>
</g>
<path d="M111.654 254.231C117.093 252.213 122.363 251.355 127.468 251.658C132.571 251.957 137.163 253.287 141.247 255.646C145.328 258 148.613 261.212 151.102 265.282C151.588 266 151.916 266.587 152.087 267.043C152.306 267.627 152.336 268.063 152.179 268.348C152.026 268.628 151.668 268.911 151.102 269.196L134.312 276.67C133.655 276.914 133.185 276.96 132.907 276.807C132.626 276.649 132.243 276.214 131.757 275.502C129.991 272.577 127.988 270.506 125.743 269.288C123.503 268.072 120.88 268.024 117.869 269.142C114.004 270.583 111.659 273.399 110.833 277.582C110.005 281.762 111.016 287.684 113.863 295.349C116.812 303.276 119.871 308.548 123.042 311.162C126.218 313.779 129.868 314.32 133.992 312.787C137.464 311.498 140.099 309.515 141.895 306.837C143.695 304.154 144.646 300.447 144.751 295.714C144.726 295.052 145.173 294.546 146.092 294.199C146.548 294.035 146.918 293.934 147.205 293.898L160.4 291.79C161.507 291.749 162.28 292.319 162.718 293.505C163.398 295.337 163.32 298.588 162.481 303.26C161.646 307.928 159.408 312.73 155.765 317.668C152.119 322.603 146.633 326.433 139.303 329.157C132.354 331.744 125.648 332.357 119.183 331C112.722 329.638 106.987 326.59 101.982 321.857C96.9769 317.119 93.0942 311.051 90.3384 303.652C87.6146 296.316 86.6519 289.367 87.4549 282.802C88.2579 276.239 90.7445 270.49 94.9101 265.556C99.0711 260.617 104.651 256.841 111.654 254.231Z" fill="white"/>
<path d="M177.927 313.671C177.403 313.867 176.91 313.844 176.449 313.607C175.986 313.369 175.632 312.922 175.391 312.265C175.22 311.804 175.126 311.243 175.108 310.586L173.949 234.748C173.96 233.781 174.099 233.06 174.369 232.586C174.642 232.111 175.208 231.717 176.066 231.4L195.411 224.2C196.196 223.908 196.99 223.894 197.793 224.154C198.596 224.41 199.31 224.866 199.937 225.523L248.391 283.658C248.712 284.133 248.922 284.502 249.02 284.763C249.239 285.353 249.296 285.91 249.194 286.432C249.089 286.957 248.776 287.315 248.254 287.509L229 294.672C227.887 295.087 226.958 294.798 226.217 293.805L218.178 283.932C217.817 283.549 217.525 283.307 217.302 283.202C217.076 283.1 216.731 283.134 216.271 283.303L195.447 291.05C194.663 291.342 194.307 291.885 194.38 292.674L194.663 305.768C194.631 306.895 194.028 307.675 192.856 308.113L177.927 313.671ZM205.156 268.429C205.873 268.162 206.11 267.703 205.868 267.051C205.818 266.919 205.633 266.613 205.312 266.138L193.166 251.529C192.911 251.256 192.651 251.169 192.391 251.265C192.128 251.363 191.991 251.598 191.98 251.967L192.208 270.902C192.172 271.212 192.226 271.563 192.372 271.951C192.646 272.676 193.175 272.889 193.96 272.59L205.156 268.429Z" fill="white"/>
<path d="M231.018 213.52C230.751 212.804 230.708 212.188 230.89 211.677C231.068 211.161 231.451 210.792 232.04 210.573L250.71 203.629C251.884 203.191 252.726 203.66 253.237 205.034L273.075 258.369C273.269 258.899 273.486 259.232 273.723 259.364C273.96 259.492 274.307 259.471 274.763 259.3L304.328 248.295C305.836 247.736 306.822 248.081 307.285 249.327L311.783 261.408C312.025 262.065 312.007 262.672 311.729 263.224C311.448 263.771 310.916 264.191 310.132 264.483L259.935 283.162C258.954 283.527 258.194 283.589 257.654 283.345C257.118 283.096 256.691 282.546 256.376 281.693L231.018 213.52Z" fill="white"/>
<path d="M354.105 249.247C346.969 251.907 340.164 252.705 333.692 251.647C327.225 250.584 321.511 247.787 316.547 243.261C311.583 238.735 307.7 232.708 304.894 225.175C302.097 217.645 301.103 210.507 301.91 203.759C302.713 197.013 305.204 191.091 309.383 185.992C313.563 180.896 319.188 177.029 326.265 174.395C333.273 171.792 340.002 171.059 346.458 172.195C352.919 173.334 358.658 176.192 363.677 180.773C368.701 185.354 372.613 191.41 375.412 198.941C378.191 206.405 379.19 213.491 378.405 220.193C377.625 226.897 375.147 232.758 370.968 237.777C366.793 242.796 361.172 246.619 354.105 249.247ZM348.402 233.917C351.279 232.847 353.307 231.293 354.488 229.254C355.668 227.21 356.067 224.473 355.684 221.042C355.305 217.606 354.128 213.235 352.152 207.929C349.134 199.808 346.05 194.321 342.9 191.467C339.747 188.616 336.076 187.968 331.886 189.524C327.627 191.112 325.22 194.02 324.668 198.247C324.12 202.477 325.355 208.65 328.373 216.771C330.348 222.077 332.315 226.156 334.267 229.008C336.225 231.855 338.333 233.659 340.591 234.419C342.854 235.181 345.457 235.012 348.402 233.917Z" fill="white"/>
<path d="M93.3137 219.099C92.8757 219.264 92.5655 219.542 92.383 219.93C92.205 220.313 92.1868 220.696 92.3282 221.079L101.225 244.996C101.601 246.007 101.613 246.812 101.262 247.414C100.908 248.012 100.196 248.509 99.1263 248.911L83.3401 254.778C82.3956 255.132 81.6634 255.189 81.141 254.951C80.6231 254.714 80.2125 254.19 79.9091 253.373L55.4906 187.737C55.2351 187.05 55.1963 186.457 55.372 185.957C55.543 185.46 55.9103 185.104 56.4761 184.89L74.4432 178.21C74.9496 178.023 75.4241 178.044 75.8667 178.274C76.3093 178.5 76.6469 178.927 76.8796 179.552L85.0465 201.497C85.5141 202.756 86.3171 203.176 87.4555 202.756L103.342 196.843C104.478 196.424 104.813 195.584 104.346 194.325L96.179 172.379C95.9463 171.754 95.9235 171.209 96.106 170.746C96.293 170.278 96.6375 169.95 97.1371 169.76L115.104 163.081C115.675 162.869 116.19 162.896 116.646 163.163C117.103 163.425 117.458 163.9 117.714 164.587L142.132 230.223C142.436 231.039 142.47 231.708 142.233 232.23C141.996 232.748 141.405 233.184 140.463 233.535L124.667 239.412C123.595 239.809 122.733 239.895 122.076 239.676C121.419 239.453 120.901 238.834 120.524 237.824L111.628 213.907C111.486 213.524 111.219 213.246 110.825 213.068C110.434 212.892 110.022 212.885 109.584 213.049L93.3137 219.099Z" fill="white"/>
<path d="M151.99 229.238C151.49 229.427 151.016 229.409 150.567 229.183C150.122 228.953 149.784 228.524 149.554 227.897C149.389 227.447 149.298 226.906 149.28 226.272L148.176 153.254C148.18 152.323 148.315 151.63 148.577 151.174C148.837 150.713 149.376 150.329 150.192 150.024L168.826 143.098C169.585 142.813 170.352 142.797 171.125 143.052C171.903 143.303 172.587 143.746 173.178 144.385L219.844 200.348C220.154 200.8 220.355 201.151 220.446 201.407C220.658 201.972 220.713 202.509 220.61 203.013C220.512 203.519 220.211 203.866 219.707 204.053L201.174 210.942C200.102 211.344 199.207 211.068 198.491 210.112L190.762 200.613C190.409 200.236 190.123 199.999 189.904 199.901C189.69 199.805 189.361 199.837 188.919 200.001L168.871 207.466C168.109 207.746 167.767 208.266 167.84 209.026L168.114 221.628C168.082 222.718 167.503 223.471 166.371 223.891L151.99 229.238ZM178.206 185.684C178.9 185.429 179.13 184.986 178.9 184.352C178.849 184.224 178.667 183.932 178.352 183.476L166.663 169.414C166.426 169.148 166.179 169.059 165.924 169.15C165.673 169.241 165.543 169.469 165.532 169.834L165.751 188.057C165.714 188.362 165.764 188.702 165.906 189.079C166.161 189.772 166.668 189.98 167.43 189.699L178.206 185.684Z" fill="white"/>
<path d="M203.115 132.818C202.86 132.131 202.821 131.538 202.997 131.039C203.168 130.541 203.535 130.185 204.101 129.971L222.068 123.292C223.199 122.867 224.011 123.314 224.504 124.633L243.612 175.998C243.799 176.497 244.007 176.814 244.232 176.947C244.463 177.074 244.8 177.056 245.245 176.892L273.706 166.307C275.159 165.766 276.108 166.097 276.553 167.301L280.878 178.927C281.116 179.554 281.097 180.136 280.824 180.67C280.554 181.199 280.043 181.605 279.291 181.883L230.965 199.859C230.02 200.213 229.288 200.27 228.766 200.033C228.248 199.796 227.837 199.271 227.534 198.454L203.115 132.818Z" fill="white"/>
<path d="M321.64 167.209C314.759 169.771 308.203 170.54 301.975 169.518C295.745 168.496 290.24 165.804 285.459 161.442C280.684 157.08 276.945 151.277 274.244 144.032C271.55 136.782 270.592 129.906 271.37 123.409C272.15 116.912 274.552 111.214 278.579 106.309C282.601 101.4 288.016 97.6767 294.83 95.1399C301.569 92.6351 308.048 91.9279 314.267 93.0229C320.49 94.1179 326.015 96.8714 330.847 101.281C335.683 105.693 339.447 111.524 342.143 118.774C344.819 125.96 345.777 132.781 345.018 139.241C344.263 145.697 341.879 151.339 337.864 156.168C333.853 161 328.447 164.679 321.64 167.209ZM316.146 152.454C318.913 151.427 320.864 149.931 321.995 147.965C323.132 145.994 323.515 143.356 323.145 140.053C322.78 136.745 321.649 132.539 319.751 127.433C316.842 119.618 313.87 114.334 310.836 111.583C307.799 108.834 304.268 108.207 300.241 109.703C296.14 111.232 293.827 114.033 293.297 118.108C292.768 122.184 293.957 128.131 296.865 135.947C298.763 141.052 300.652 144.976 302.532 147.718C304.416 150.463 306.446 152.203 308.618 152.938C310.795 153.675 313.304 153.513 316.146 152.454Z" fill="white"/>
<defs>
<filter id="filter0_d_64_9824" x="0.660587" y="44.2722" width="434.66" height="347.393" filterUnits="userSpaceOnUse" color-interpolation-filters="sRGB">
<feFlood flood-opacity="0" result="BackgroundImageFix"/>
<feColorMatrix in="SourceAlpha" type="matrix" values="0 0 0 0 0 0 0 0 0 0 0 0 0 0 0 0 0 0 127 0" result="hardAlpha"/>
<feOffset dy="4"/>
<feGaussianBlur stdDeviation="2"/>
<feComposite in2="hardAlpha" operator="out"/>
<feColorMatrix type="matrix" values="0 0 0 0 0 0 0 0 0 0 0 0 0 0 0 0 0 0 0.25 0"/>
<feBlend mode="normal" in2="BackgroundImageFix" result="effect1_dropShadow_64_9824"/>
<feBlend mode="normal" in="SourceGraphic" in2="effect1_dropShadow_64_9824" result="shape"/>
</filter>
</defs>
</svg>
