<svg width="21" height="20" viewBox="0 0 21 20" fill="none" xmlns="http://www.w3.org/2000/svg">
<path fill-rule="evenodd" clip-rule="evenodd" d="M5.70834 2.91699C3.41667 2.91699 3.41667 3.09033 3.41667 5.20866V5.22949C3.41667 6.15199 3.41667 6.81866 3.64251 7.10033C3.86334 7.37366 4.51917 7.50033 5.70834 7.50033C6.8975 7.50033 7.55334 7.37283 7.77417 7.09949C8 6.81866 8 6.15199 8 5.22866C8 3.09033 8 2.91699 5.70834 2.91699ZM5.70834 8.75033C4.30334 8.75033 3.24917 8.60283 2.67001 7.88366C2.16667 7.25949 2.16667 6.40783 2.16667 5.22949L2.79167 5.20866H2.16667C2.16667 2.81699 2.31751 1.66699 5.70834 1.66699C9.09917 1.66699 9.25001 2.81699 9.25001 5.20866C9.25001 6.40699 9.25001 7.25949 8.74667 7.88366C8.16751 8.60283 7.11334 8.75033 5.70834 8.75033Z" fill="#2D3643"/>
<path fill-rule="evenodd" clip-rule="evenodd" d="M14.875 2.91699C12.5833 2.91699 12.5833 3.09033 12.5833 5.20866V5.22949C12.5833 6.15199 12.5833 6.81866 12.8092 7.10033C13.03 7.37366 13.6858 7.50033 14.875 7.50033C16.0642 7.50033 16.72 7.37283 16.9408 7.09949C17.1667 6.81866 17.1667 6.15199 17.1667 5.22866C17.1667 3.09033 17.1667 2.91699 14.875 2.91699ZM14.875 8.75033C13.47 8.75033 12.4158 8.60283 11.8367 7.88366C11.3333 7.25949 11.3333 6.40783 11.3333 5.22949L11.9583 5.20866H11.3333C11.3333 2.81699 11.4842 1.66699 14.875 1.66699C18.2658 1.66699 18.4167 2.81699 18.4167 5.20866C18.4167 6.40699 18.4167 7.25949 17.9133 7.88366C17.3342 8.60283 16.28 8.75033 14.875 8.75033Z" fill="#2D3643"/>
<path fill-rule="evenodd" clip-rule="evenodd" d="M5.70834 12.084C3.41667 12.084 3.41667 12.2573 3.41667 14.3757V14.3965C3.41667 15.319 3.41667 15.9857 3.64251 16.2673C3.86334 16.5407 4.51917 16.6673 5.70834 16.6673C6.8975 16.6673 7.55334 16.5398 7.77417 16.2665C8 15.9857 8 15.319 8 14.3957C8 12.2573 8 12.084 5.70834 12.084ZM5.70834 17.9173C4.30334 17.9173 3.24917 17.7698 2.67001 17.0507C2.16667 16.4265 2.16667 15.5748 2.16667 14.3965L2.79167 14.3757H2.16667C2.16667 11.984 2.31751 10.834 5.70834 10.834C9.09917 10.834 9.25001 11.984 9.25001 14.3757C9.25001 15.574 9.25001 16.4265 8.74667 17.0507C8.16751 17.7698 7.11334 17.9173 5.70834 17.9173Z" fill="#2D3643"/>
<path fill-rule="evenodd" clip-rule="evenodd" d="M14.875 12.084C12.5833 12.084 12.5833 12.2573 12.5833 14.3757V14.3965C12.5833 15.319 12.5833 15.9857 12.8092 16.2673C13.03 16.5407 13.6858 16.6673 14.875 16.6673C16.0642 16.6673 16.72 16.5398 16.9408 16.2665C17.1667 15.9857 17.1667 15.319 17.1667 14.3957C17.1667 12.2573 17.1667 12.084 14.875 12.084ZM14.875 17.9173C13.47 17.9173 12.4158 17.7698 11.8367 17.0507C11.3333 16.4265 11.3333 15.5748 11.3333 14.3965L11.9583 14.3757H11.3333C11.3333 11.984 11.4842 10.834 14.875 10.834C18.2658 10.834 18.4167 11.984 18.4167 14.3757C18.4167 15.574 18.4167 16.4265 17.9133 17.0507C17.3342 17.7698 16.28 17.9173 14.875 17.9173Z" fill="#2D3643"/>
</svg>
